<?xml version="1.0" encoding="utf-8"?>
<!-- Generator: Adobe Illustrator 28.0.0, SVG Export Plug-In . SVG Version: 6.00 Build 0)  -->
<svg version="1.0" xmlns="http://www.w3.org/2000/svg" xmlns:xlink="http://www.w3.org/1999/xlink" x="0px" y="0px" width="200px"
	 height="200.7px" viewBox="0 0 500 346.7" style="enable-background:new 0 0 500 346.7;" xml:space="preserve">
<style type="text/css">
	.st0{fill:#D6D6D6;}
	.st1{fill:#F5F5F5;}
	.st2{fill:none;stroke:#262626;stroke-width:0.274;stroke-linecap:round;stroke-linejoin:round;stroke-miterlimit:10;}
	.st3{fill:#FF9D00;}
	.st4{fill:#FF9903;}
	.st5{fill:#FF9C00;}
	.st6{opacity:0.5;fill:#E8A600;}
	.st7{fill:#E8A600;}
	.st8{fill:#F7A99C;}
	.st9{fill:#FF7769;}
	.st10{fill:#262626;}
	.st11{fill:none;stroke:#262626;stroke-width:1.7049;stroke-linecap:round;stroke-linejoin:round;stroke-miterlimit:10;}
	.st12{fill:#FFFFFF;}
	.st13{fill:none;stroke:#262626;stroke-linecap:round;stroke-linejoin:round;stroke-miterlimit:10;}
	.st14{fill:#FE0000;}
	.st15{opacity:0.5;fill:#CDEBF5;}
	.st16{fill:none;stroke:#262626;stroke-width:1.5;stroke-linecap:round;stroke-linejoin:round;stroke-miterlimit:10;}
	.st17{fill:none;stroke:#FFFFFF;stroke-linecap:round;stroke-linejoin:round;stroke-miterlimit:10;}
	.st18{fill:#506CBC;}
	.st19{fill:#34478C;}
	.st20{opacity:0.5;fill:#D6D6D6;}
</style>
<g id="BACKGROUND">
</g>
<g id="OBJECT">
	<path class="st0" d="M406,323.8H62.3c-3.1,0-5.6-2.5-5.6-5.6l0,0c0-3.1,2.5-5.6,5.6-5.6H406c3.1,0,5.6,2.5,5.6,5.6l0,0
		C411.7,321.2,409.1,323.8,406,323.8z"/>
	<g>
		<path class="st1" d="M43.5,53.1c-3.7,0.6-6.2,4-5.6,7.7l27.8,176.5c0.6,3.7,4,6.2,7.7,5.6l128.5-20.2c3.7-0.6,6.2-4,5.6-7.7
			L184.3,67.6l-42.7-29.9L43.5,53.1z"/>
		<path class="st0" d="M151.6,72.7l32.7-5.1l-42.7-29.9l4.9,31.4C147,71.5,149.2,73.1,151.6,72.7z"/>
		<path class="st2" d="M141.6,37.7l4.9,31.4c0.4,2.4,2.6,4,5,3.7l32.7-5.1"/>
		<g>
			<path class="st0" d="M195.7,55.8c-0.4-2.4-0.5-4.3-0.4-5.8c0.1-1.5,0.6-3,1.5-4.3c0.5-0.8,1.1-1.6,1.8-2.2c0.7-0.6,1.3-1.3,1.9-2
				c0.6-0.7,1-1.4,1.3-2.2c0.3-0.8,0.4-1.8,0.2-2.9c-0.3-2-1.1-3.3-2.3-3.9c-1.2-0.6-2.6-0.8-4.1-0.6c-2.1,0.3-3.5,1.2-4.1,2.5
				c-0.6,1.3-0.9,3-0.8,5l-7.8,1.2c-0.3-2-0.3-3.8,0.1-5.5c0.4-1.7,1.1-3.2,2.1-4.5c1-1.3,2.3-2.4,3.9-3.3c1.6-0.9,3.4-1.5,5.4-1.8
				c4.4-0.7,7.9-0.3,10.7,1c2.8,1.4,4.5,4.1,5.1,8.1c0.2,1.3,0.2,2.4,0.1,3.4c-0.1,1-0.4,1.9-0.8,2.8c-0.4,0.9-0.9,1.7-1.6,2.5
				c-0.7,0.8-1.4,1.6-2.3,2.5c-0.8,0.8-1.4,1.6-1.8,2.2c-0.5,0.7-0.8,1.4-0.9,2c-0.2,0.7-0.3,1.4-0.2,2.1c0,0.7,0.1,1.5,0.3,2.4
				L195.7,55.8z M197.3,67.5l-1.2-7.9l8.2-1.3l1.2,7.9L197.3,67.5z"/>
		</g>
	</g>
	<g>
		<path class="st0" d="M91.6,149.6c-0.2-1.8,0.7-3,2-3.9c1.6-1.1,1.5-2.7-0.3-3.8c-2.1-1.3-2.6-4.2-1-6c0.8-0.9,1.3-1.5,0.7-2.9
			c-0.8-1.8-1.5-0.1-2.2-0.2c-2-0.3-4,0.3-5.8,0.7c-2.1,0.4-2.2-1-2.3-1.8c-0.9-5.1-1.6-10.3-2.4-15.5c-0.6-4-1.1-7.9-1.8-11.9
			c-0.6-3.2,0.6-5.6,3.6-6c6.1-0.8,12.2-1.8,18.2-2.9c3.4-0.6,5.4,1.3,5.9,4.8c1.2,7.9,2.6,15.8,3.9,23.7c0.2,1.2,0,2.4,0.5,3.6
			c0.5,1.4-0.7,2.4-2.1,2.4c-1.8-0.1-3.5,0.9-5.3,0.7c-0.9-0.1-2.1,0.2-2.2,1.2c-0.1,0.9,0.3,1.9,1.3,2.5c2.4,1.5,2.9,3.9,1,5.9
			c-1,1.1-0.9,2.3-0.5,3.1c0.4,0.8,1.7,0.4,2.6,0.2c1.7-0.4,2.9-0.5,2-3.2c-1.4-4.1,0.5-5.8,6.3-6.4c1.8-0.2,3.6-0.2,5.3-0.7
			c2.2-0.6,3.3,0.4,3.7,2.1c0.6,2.1,1.6,2.1,3.5,1.8c5.4-1,10.8-1.9,16.3-2.6c1.2-0.2,2.3-0.7,3.6-0.7c3.4,0.1,5.6,1.5,6,4.7
			c0.6,5.9,1.9,11.7,2.8,17.6c0.3,1.8-0.9,3.5-2.3,4.6c-1,0.8-1.2,1.3-0.7,2.6c0.8,2.2-0.5,5.1-2.3,5.5c-2,0.5-3.8-1.1-4.4-3.8
			c-0.4-1.9-1.1-3.4-3.6-2.2c-0.6,0.3-1.5,0.1-2.2,0.3c-1.4,0.4-3.3,0.1-2.4,2.9c0.6,1.7,0.5,4-1.6,4.9c-1.5,0.6-3.1,0.5-4.4-0.9
			c-1-1-0.4-2.1-0.7-3.2c-0.2-0.8-0.3-2.1-1.5-1.9c-1.4,0.1-0.7,1.3-0.7,2c-0.1,3.2-0.3,3.5-5.5,4.2c-2.1,0.3-4.2,0.6-6.3,1.1
			c-2.2,0.6-4.2-1.5-4.3-4.7c-0.1-2.5-0.7-3-3.3-2.3c-3.5,0.9-7.1,1.3-10.7,1.7c-1.5,0.1-3.2-0.6-3.6-2.3
			C93.3,159.7,92.5,154.6,91.6,149.6z M101.8,97.2c-5.2,1-10.2,2-15.2,2.8c-2,0.3-4.6-0.2-5.9,1.3c-1.5,1.7-0.2,4.1,0.1,6.2
			c0.9,6.3,1.9,12.5,2.9,18.8c0.2,1.2,0.9,1.5,2.1,1.3c6.7-1.5,13.6-2.3,20.4-3.3c1.5-0.2,1.9-0.8,1.5-2.3c-0.5-1.8-0.6-3.7-0.9-5.5
			c-1-5.7-2-11.3-2.8-17C103.6,98,102.8,97.4,101.8,97.2z M116.3,170.1c2.6-0.4,5.4-0.6,8.2-1.2c0.8-0.2,1.8-0.6,1.5-2.2
			c-1.5-9.3-2.9-18.6-4.5-27.8c-0.3-1.4,0.4-4.3-2.8-3.8c-2.6,0.4-5.2,0.7-7.7,1.3c-1,0.2-2.4,0.7-2,2.5c1.8,9.9,3.5,19.7,5,29.6
			C114.3,170.2,115,170.2,116.3,170.1z M108.4,145.2c-4.4,0.2-8.5,1-12.5,1.9c-1.5,0.3-2.2,0.7-2,2.8c0.5,4.3,1.6,8.4,1.9,12.7
			c0.2,2,1.6,2.6,3.2,2.3c3.6-0.7,7.1-1.5,10.7-1.7c1.4-0.1,1.2-0.7,1-1.8C109.9,156,109.1,150.6,108.4,145.2z M149.8,138.2
			c-0.5-2.3-2-2.7-4-2.4c-1.9,0.3-3.9,0.6-5.8,0.9c-5,0.8-9.9,1.5-14.9,2.3c-1.5,0.2-1.2,1.5-1.2,2.5c0,1.1,0.7,1,1.4,0.9
			C133.3,140.6,141.6,139.8,149.8,138.2z M151.3,156.4c-4.1,0.6-7.9,1-11.8,1.7c-3.8,0.6-7.6,1.6-11.4,2.2c-2,0.3-0.5,1.3-0.6,1.9
			c-0.3,1.2,0.6,1.1,1.4,0.9c4.5-0.7,9-1.4,13.5-2.2c2.6-0.5,5.1-1,7.7-1.2c1.2-0.1,2.3-1.1,2.4-2.6
			C152.5,155.8,151.5,156.5,151.3,156.4z M127,150c0.7,0,1.4,0.1,2.1,0c6.8-1.4,13.7-2.5,20.6-3.4c1-0.1,1.3-0.4,1.3-1.3
			c0-1.3-0.9-1.1-1.6-1c-2,0.3-4,0.8-6,1.1c-5.5,1-10.9,1.9-16.4,2.9c-0.8,0.1-2.1-0.4-1.9,1.3C125.3,151.6,126.6,149.1,127,150z
			 M150.3,141.4c0-1.3-0.7-1.2-1.5-1c-4.4,0.8-8.8,1.4-13.2,2.2c-3.4,0.6-6.8,1.2-10.2,1.7c-1,0.1-1,0.6-1,1.3c0,0.6,0,1,0.9,0.9
			c8-1.3,15.9-2.6,23.9-3.9C150.3,142.4,150.4,141.9,150.3,141.4z M127.8,154.1c2.1-0.4,4.2-0.9,6.5-1.2c5.3-0.8,10.5-1.6,15.8-2.3
			c1-0.1,1.6-0.7,1.4-1.7c-0.2-1.1-1.4-0.7-1.9-0.5c-1.7,0.9-3.5,0.7-5.2,1c-5.7,0.9-11.4,1.7-17,3c-0.6,0.1-1.7-0.4-1.7,0.9
			C125.8,154.6,127,153.7,127.8,154.1z M128.9,158c1.1-1.1,3-0.4,4.7-0.7c5.4-1,10.8-1.8,16.3-2.7c0.9-0.1,1.8,0,2.2-1
			c0.1-0.3,0.1-0.9-0.1-1.1c-0.7-0.5-1.6-0.3-2.5-0.2c-3,0.5-6,1.1-9.1,1.6c-4.1,0.7-8.3,1.2-12.4,2c-0.5,0.1-1.8-0.3-1.7,0.9
			C126.4,158,127.4,158.1,128.9,158z M84.3,129.6c0.8,1.7,0.8,1.7,2.4,1.5c6.5-1,13.1-1.9,19.6-2.9c0.9-0.1,2.4-0.1,2.1-1.6
			c-0.3-1.3-1.7-0.7-2.4-0.5C98.8,127.5,91.6,128.3,84.3,129.6z M100.1,136.2c-1.7-0.1-3.3,0.7-5,0.7c-0.9,0-1.9,1-1.6,2.3
			c0.3,1.2,1.2,1.1,2.2,0.8c1.5-0.5,3.1-0.7,4.6-0.9c1.1-0.1,2.3,0.1,2.2-1.5C102.5,135.9,101.2,136.2,100.1,136.2z M146.5,162.2
			c0.1,0.6,0.3,1,0.3,1.5c0,1.4-0.2,3.2,1.6,3.2c1.7-0.1,1.8-1.7,1.3-3.2c-0.2-0.6,0-1.3,0-2.3C148.7,162.4,147.6,161.8,146.5,162.2
			z M132,165.9c-0.1,1.6,0.4,3.1,1.9,3.4c0.7,0.2,1.9-1.4,1.4-2c-0.7-1,0.5-3.1-1.9-3C132.1,164.3,131.8,164.9,132,165.9z M95.5,135
			c0.9-1.4,4.3,0.8,3.7-2.5c-0.4-1.8-2.1-1-3-0.8C94.2,132.1,95.7,133.8,95.5,135z M98.4,141.4c-0.4,0.1-1.7-0.1-1.5,1.2
			c0.1,0.7-0.5,2.8,1.2,2c0.9-0.4,3,0.6,2.9-1.7C100.9,141.5,100,141.3,98.4,141.4z"/>
		<path class="st0" d="M88.5,117.1c1-3.3,2.1-7,3.4-10.6c0.2-0.7,1.1-1,1.6-0.4c2.9,3.5,6.2,6.8,7.3,11.2c0.9,3.7-4.1,7.6-7.8,6.3
			C90.1,122.5,88.6,120.5,88.5,117.1z M98.7,117.5c-0.7-2.9-3-4.9-4.4-7.5c-0.9-1.6-1.5-0.7-1.8,0.3c-0.6,2.1-0.8,4.5-1.7,6.5
			c-0.9,2.2,0.6,3.2,1.8,4.2c0.9,0.8,2.5,1.4,3.6,0.5C97.4,120.5,98.9,119.5,98.7,117.5z"/>
	</g>
	<path class="st3" d="M190,166.2c17,16.7,36.8,39.3,55.2,68.4c12.8,20.3,22.3,39.6,29.4,56.6c-16.3,7.3-32.6,14.7-48.9,22
		l-41.9-142.7L190,166.2z"/>
	<path class="st4" d="M159.1,154.7l31.4,9.8c8.6,13.6,13.6,25.7,16.5,34.1c13.6,39.1,9.2,74.9,8,85c0,0,0,0.2-4,29.7l0,0H67.5
		c-0.5-10.7-0.4-25.5,2.1-42.8c3-20.6,5.8-39.6,18.2-60.6c5.1-8.5,22.7-35.8,56.4-50.1C150.3,157.2,155.5,155.6,159.1,154.7z"/>
	<path class="st5" d="M85.3,214.4c17.5,5.6,39.7,11.1,65.8,13.8c24.3,2.5,45.8,1.9,63.2,0.3c0.5,4.1,1,8.2,1.5,12.3
		c-18.6,1.5-40.6,2-65.4-0.2c-27.7-2.4-51.7-7.5-71.1-13C81.3,223.1,83.3,218.8,85.3,214.4z"/>
	<polygon class="st6" points="219.9,203.4 227,205 201.1,313.2 186.5,313.2 	"/>
	<polygon class="st7" points="161.9,292.5 168,290.6 181.9,297.8 185.4,289.3 167.7,282.5 160.5,285.8 	"/>
	<path class="st6" d="M67.3,297c14.2,3.6,31.2,6.7,50.5,8.3c16.9,1.4,32.2,1.2,45.5,0.3c0-5.4,0-10.9,0-16.3
		c-31.6-3.5-63.1-7.1-94.7-10.6L67.3,297z"/>
	<g>
		<path class="st8" d="M171.8,177.2L171.8,177.2c-8.9-1.5-14.8-9.9-13.3-18.8l5.9-34.6l32.1,5.5l-5.9,34.6
			C189,172.8,180.6,178.7,171.8,177.2z"/>
		<path class="st9" d="M192.2,154.2l-19-14.4c-0.1,1.8-0.4,10.5,6,17.7c4.1,4.6,9,6.3,11.2,7L192.2,154.2z"/>
		<path class="st8" d="M165.5,113c0-0.5-1.2-1.6-1.6-1.9c-0.6-0.6-1.3-1.1-2.1-1.5c-1.5-0.8-3.2-1.2-4.9-1.1
			c-3.3,0.2-6.6,2.4-7.7,5.6c-0.6,1.9-0.5,3.9,0,5.8c0.8,2.9,2.5,5.4,4.7,7.3c1.9,1.6,4.1,2.7,6.5,3.2c0.5,0.1,5.4,0.9,5.4,0.7
			C165.7,125.1,165.6,119,165.5,113z"/>
		<path class="st8" d="M161,112.6c-0.1,2.6-0.2,16.6,10.4,28.4c1.9,2.2,14.9,16.6,29.6,13.2c18.9-4.3,22.1-33.6,22.2-35.2
			c0.5-5.4,2-21.2-9.5-31.8c-9.4-8.7-21.2-8.2-22.9-8.1c-1.8,0.1-13.2,0.9-21.7,10.4C161.4,98.2,161.1,108.2,161,112.6z"/>
		<path class="st10" d="M213.2,117.3c-0.1,2.3,1.3,4.3,3.3,4.4c1.9,0.1,3.5-1.7,3.7-4c0.1-2.3-1.3-4.3-3.3-4.4
			C215,113.1,213.3,114.9,213.2,117.3z"/>
		<path class="st11" d="M206.5,119.6l2.4,4.8c0.4,0.9,0,1.9-0.9,2.3l-3.2,1.2"/>
		<path class="st9" d="M183.7,125.7c-0.1,2.6,1.9,4.8,4.5,4.9s4.8-1.9,4.9-4.5c0.1-2.6-1.9-4.8-4.5-4.9
			C186,121.1,183.8,123.1,183.7,125.7z"/>
		<path class="st11" d="M161.3,124.2c0.1-0.5,0.8-3.9-1.6-6.9c-1.8-2.3-4.3-2.9-5-3"/>
		<path class="st11" d="M159.9,118c-0.1-0.1-2-0.6-3.5,0.5c-1.3,1-1.4,2.4-1.4,2.6"/>
		<path class="st9" d="M219.8,124.5c0.9,0,1.7,0.3,2.4,0.8c-0.5,2.5-1.3,5.4-2.4,8.5c-0.2,0-0.3,0-0.5,0c-2.6-0.1-4.6-2.3-4.5-4.9
			C215,126.4,217.2,124.4,219.8,124.5z"/>
		<polyline class="st11" points="194.8,112.3 198.7,116.7 193.1,118.7 		"/>
		<path class="st12" d="M193.1,137.3l14.1,1.6c0-0.3-0.7-4.4-4-6C199.9,131.5,195.3,133.1,193.1,137.3z"/>
		<path class="st10" d="M161.2,109.3c0.8,0.3,2.6,1.1,4.1,3.1c1.3,1.8,1.7,3.6,1.8,4.5c14.6-1.4,23-5.5,28.1-9.2
			c0,0,0.4-0.3,11.1-8.4c1.7,1.9,4.4,4.4,8.3,6.5c3.5,1.9,6.7,2.9,9,3.5c7.7-1.8,13-7.5,13.2-13.5c0.2-6.3-5.4-11.1-9.4-13.1
			c-6.5-3.2-9.5,0.5-19-2c-7.7-2-7.4-4.9-14.6-6.6c-2.2-0.5-11.2-2.7-20.3,2.1c-7.7,4-13.7,12.2-14.3,21.6
			C158.7,102.8,160.1,106.9,161.2,109.3z"/>
	</g>
	<path class="st5" d="M159.1,154.7c-12.9,2.9-37,10.4-59.4,30.4c0,0-22.6,20.2-38.1,57.8c-1.4,3.3-2.9,6.8-4.6,14.2
		c-1.3,5.7-1.9,11-2.1,15.6c-0.1,3.4,2,6.6,5.2,7.8c2.8,1,6.1,2.2,9.8,3.4c6.7,2.2,21.6,8.4,38.5,10.7c35.2,4.9,54.8,6.1,54.8,6.1
		l2.6-60.8l-46.6-5.9L159.1,154.7z"/>
	<path class="st13" d="M215.5,278.7"/>
	<path class="st13" d="M196.7,186c5.9,20.5,9.5,37.6,11.8,50.1"/>
	<polygon class="st6" points="135.8,182.3 109.7,241.2 125.5,241.2 	"/>
	
		<rect x="193.8" y="200.3" transform="matrix(0.9621 0.2726 -0.2726 0.9621 77.6283 -45.0998)" class="st14" width="14.7" height="113"/>
	<path class="st8" d="M164.8,254.2c0,0,26.5-2.6,29.3-1.8c2.8,0.9,12.5,6.3,13.9,7.9c1.4,1.6,1.9,3,1.7,4.5
		c-0.2,1.5-2.1,3.1-2.1,3.1c1.5,2.4,1.6,4,1.3,5.1c-0.6,2-2.9,4-2.9,4.1l0,0c0.2,0.6,0.4,1.5,0.4,2.5c0,1,0.1,3-0.9,4.9
		c-1.5,2.8-4.6,3.5-5.2,3.7c0,0,1.2,2.2-0.4,4.1c-1.6,1.9-6.2,4.2-11.8,3.4c-5.6-0.8-20-7.9-20-7.9l-4.6,1.5L164.8,254.2z"/>
	<circle class="st15" cx="237.1" cy="138.9" r="64.5"/>
	<path class="st14" d="M237.1,66.1c-40.2,0-72.8,32.6-72.8,72.8c0,40.2,32.6,72.8,72.8,72.8s72.8-32.6,72.8-72.8
		C310,98.7,277.4,66.1,237.1,66.1z M237.1,199.9c-33.7,0-60.9-27.3-60.9-60.9c0-33.7,27.3-60.9,60.9-60.9
		c33.7,0,60.9,27.3,60.9,60.9C298.1,172.6,270.8,199.9,237.1,199.9z"/>
	<path class="st16" d="M207.5,267.9c0,0-9.8-1.8-14.7-4.1s-6.8-3.6-6.8-3.6"/>
	<path class="st16" d="M205.8,277.1c0,0-11.3-1.1-15.9-3.8c-4.6-2.6-6.2-4.4-6.2-4.4"/>
	<path class="st16" d="M202.1,287.5c-4.8-0.2-8.5-1.3-11-2.3c-4.2-1.7-9.5-5-9.5-5l0,0"/>
	<polygon class="st9" points="164.8,254.2 163.3,289.3 168,287.8 166.5,254 	"/>
	<path class="st13" d="M134,186c0,0-24.3,53.4-23.6,54.8c0.7,1.4,55.5-0.9,55.5-0.9l-2.6,60.8c0,0-42.8-2.7-59.7-6.9
		S67.3,283,67.3,283"/>
	<g>
		<g>
			<path class="st12" d="M240.5,95.8c-0.4,0.8-0.4,1.8-0.1,2.8c0.7,1.9,2.8,2.8,4.7,2.1c3.4-1.3,7.1-1.8,10.7-1.6
				c4,0.3,7,1.5,8.5,2.2c1.7,0.8,5.4,2.5,8,6.2c3.8,5.2,3.4,11.2,3.1,13.6c-0.3,2,1.1,3.8,3.1,4.1c2,0.3,3.8-1.1,4.1-3.1
				c0.5-4,0.6-11.8-4.5-18.8c-3.8-5.2-8.7-7.5-10.8-8.5c-2.3-1.1-6.2-2.5-11.1-2.8c-4.6-0.3-9.3,0.4-13.7,2
				C241.6,94.2,240.9,94.9,240.5,95.8z"/>
		</g>
	</g>
	<path class="st17" d="M113.7,180.5c-8.8,7.9-20.2,19.6-30.5,35.9c-10.6,16.7-16.5,32.3-19.9,43.9"/>
	<path class="st18" d="M284.9,313.2H176.7c-4.2,0-7.6-3.4-7.6-7.6v-4.9h115.9V313.2z"/>
	<path class="st19" d="M365.7,313.2H247.6c-4.6,0-7.9-4-7.4-8.9l8.9-77c0.6-4.9,4.8-8.9,9.4-8.9h118.1c4.6,0,7.9,4,7.4,8.9l-8.9,77
		C374.5,309.2,370.3,313.2,365.7,313.2z"/>
	<path class="st18" d="M377.1,313.2H259c-4.6,0-7.9-4-7.4-8.9l8.9-77c0.6-4.9,4.8-8.9,9.4-8.9H388c4.6,0,7.9,4,7.4,8.9l-8.9,77
		C385.9,309.2,381.7,313.2,377.1,313.2z"/>
	<path class="st19" d="M395.4,231.8l-8.9,73c0,0,0.4,8.4-13.4,8.4c-13.8,0-77.3,0-77.3,0c8.3-0.1,37.4-1.3,64.2-23.2
		C386.8,268.2,393.7,239.9,395.4,231.8z"/>
	<path class="st13" d="M393,241.2c-2.7,8.7-9.2,25.6-24.7,41.4c-15.4,15.6-31.9,22.4-40.5,25.3"/>
	<polygon class="st5" points="324.7,280.2 316.7,280.2 321.8,247.9 329.8,247.9 	"/>
	<polygon class="st5" points="335.2,280.2 327.2,280.2 330.7,257.9 338.7,257.9 	"/>
	<path class="st17" d="M208.2,76.4c-6,3.4-21,12.9-30.9,32.1c-9.8,19.2-8.9,36.9-8.1,43.7"/>
	<line class="st13" x1="215.5" y1="279.3" x2="213.1" y2="262.9"/>
	<g>
		<path class="st1" d="M444.4,262.9H289.7c-3.5,0-6.4-2.9-6.4-6.4V143.3c0-3.5,2.9-6.4,6.4-6.4h154.7c3.5,0,6.4,2.9,6.4,6.4v113.3
			C450.8,260.1,447.9,262.9,444.4,262.9z"/>
		<path class="st20" d="M450.8,151.4v-8.2c0-3.5-2.9-6.4-6.4-6.4H289.7c-3.5,0-6.4,2.9-6.4,6.4v8.2H450.8z"/>
		<path class="st1" d="M292,144.9c0,1.1-0.9,2-2,2c-1.1,0-2-0.9-2-2c0-1.1,0.9-2,2-2C291.1,142.9,292,143.8,292,144.9z"/>
		<path class="st1" d="M298.3,144.9c0,1.1-0.9,2-2,2c-1.1,0-2-0.9-2-2c0-1.1,0.9-2,2-2C297.4,142.9,298.3,143.8,298.3,144.9z"/>
		<path class="st1" d="M304.7,144.9c0,1.1-0.9,2-2,2c-1.1,0-2-0.9-2-2c0-1.1,0.9-2,2-2C303.8,142.9,304.7,143.8,304.7,144.9z"/>
		<path class="st20" d="M385.1,181.4v-8.2c0-2.7-2.2-4.9-4.9-4.9h-47.5c-2.7,0-4.9,2.2-4.9,4.9v8.2v54.5c0,2.7,2.2,4.9,4.9,4.9h75.9
			c2.7,0,4.9-2.2,4.9-4.9v-49.6c0-2.7-2.2-4.9-4.9-4.9H385.1z"/>
		<polygon class="st0" points="380.3,192.8 370.8,202.4 361.2,192.8 355.4,198.6 365,208.1 355.4,217.7 361.2,223.5 370.8,213.9 
			380.3,223.5 386.1,217.7 376.5,208.1 386.1,198.6 		"/>
		<path class="st13" d="M283.3,256.5"/>
		<path class="st13" d="M289.7,262.9"/>
		<path class="st13" d="M444.4,262.9"/>
		<path class="st2" d="M289.7,136.8h154.7c3.5,0,6.4,2.9,6.4,6.4v113.3"/>
		<path class="st13" d="M283.3,143.3"/>
	</g>
	<g>
		<path class="st5" d="M436.2,166c-0.7-5.9-0.9-10.6-0.4-14.3c0.4-3.7,1.8-7.2,4-10.5c1.3-2,2.8-3.7,4.5-5.3
			c1.7-1.5,3.3-3.1,4.7-4.7c1.4-1.6,2.5-3.4,3.4-5.3c0.9-1.9,1.1-4.3,0.8-7.2c-0.6-4.9-2.4-8.1-5.3-9.7c-2.9-1.6-6.2-2.2-9.9-1.7
			c-5.3,0.7-8.7,2.6-10.3,5.8c-1.6,3.2-2.4,7.3-2.2,12.3l-19.2,2.4c-0.6-4.9-0.4-9.4,0.7-13.5c1.1-4.2,2.9-7.8,5.5-11
			c2.6-3.1,5.8-5.7,9.8-7.7c3.9-2,8.4-3.3,13.3-3.9c10.7-1.3,19.5-0.2,26.2,3.4c6.7,3.6,10.7,10.3,12,20.1c0.4,3.2,0.4,6,0.1,8.5
			c-0.3,2.5-1,4.7-2.1,6.8c-1,2.1-2.4,4.1-4.1,6c-1.7,1.9-3.6,3.9-5.7,6c-2,2-3.5,3.7-4.7,5.4c-1.2,1.6-2,3.3-2.5,4.9
			c-0.5,1.7-0.7,3.4-0.7,5.2c0,1.8,0.2,3.7,0.4,5.9L436.2,166z M439.2,194.8l-2.4-19.5l20.1-2.5l2.4,19.5L439.2,194.8z"/>
	</g>
	<g>
		<path class="st0" d="M378.6,44.1c5.4,3.1,10.7,6.2,16.1,9.3c2.5,1.4,3.1,3.7,1.6,6.2c-3,5.2-6,10.4-9,15.6
			c-0.7,1.2-1.3,1.4-2.5,0.7c-2.4-1.4-4.8-2.8-7.3-4.2c-0.4-0.3-0.6-0.3-0.9,0.2c-1,1.8-1.1,1.8,0.8,2.8c3.2,1.9,6.5,3.7,9.7,5.6
			c3.6,2.1,4.7,6,2.6,9.7c-3.5,6.1-7,12.2-10.5,18.2c-2.1,3.6-6.1,4.7-9.7,2.6c-4-2.3-8-4.6-12-6.9c-0.5-0.3-0.7-0.4-1.1,0.2
			c-0.9,1.7-1,1.7,0.8,2.7c0.6,0.3,1.1,0.6,1.7,1c0.8,0.5,1,1.2,0.6,1.9c-0.9,1.5-1.8,3.1-2.7,4.6c-0.4,0.7-1.1,0.9-1.9,0.5
			c-0.4-0.2-0.7-0.4-1-0.6c-8.5-4.9-17-9.8-25.5-14.7c-1.3-0.8-1.5-1.3-0.7-2.6c0.7-1.3,1.5-2.6,2.2-3.9c0.6-1.1,1.3-1.3,2.4-0.7
			c0.9,0.5,1.8,1,2.6,1.5c0.4,0.3,0.6,0.3,0.9-0.2c1-1.8,1.1-1.8-0.8-2.8c-1.5-0.9-3-1.7-4.5-2.6c-0.5-0.3-0.8-0.4-1.1,0.3
			c-0.4,0.9-1,1.7-1.5,2.6c-0.6,1-1.2,1.2-2.2,0.6c-1.4-0.8-2.8-1.6-4.3-2.5c-0.9-0.6-1.1-1.2-0.6-2.2c0.5-0.9,1-1.8,1.6-2.7
			c0.3-0.5,0.2-0.7-0.3-0.9c-0.9-0.5-1.8-1-2.6-1.5c-1-0.6-1.3-1.3-0.6-2.3c0.5-0.7,0.4-1.1-0.4-1.4c-0.9-0.4-1.7-0.9-2.5-1.4
			c-0.9-0.5-1-1.2-0.6-2.1c1.2-2.1,2.4-4.2,3.6-6.3c0.3-0.5,0.2-0.7-0.3-0.9c-2.1-1.2-4.1-2.4-6.2-3.5c-1.1-0.6-1.2-1.3-0.6-2.3
			c0.8-1.4,1.6-2.7,2.4-4.1c0.6-1.1,1.3-1.2,2.3-0.6c2,1.2,4,2.3,6,3.5c0.6,0.4,0.8,0.3,1.2-0.3c1.5-2.7,3.1-5.4,4.7-8.1
			c0.8-1.4,1.3-1.5,2.6-0.7c0.8,0.5,1.6,0.9,2.4,1.4c0.5,0.3,0.8,0.2,1-0.3c0.1-0.3,0.3-0.7,0.6-0.9c0.5-0.4,1.1-0.4,1.7-0.1
			c1,0.6,1.9,1.1,2.9,1.7c0.5,0.3,0.6,0.2,0.9-0.3c0.5-0.9,1.1-1.9,1.6-2.8c0.5-0.9,1.2-1.1,2.1-0.6c0.9,0.5,1.8,1,2.7,1.6
			c0.5,0.3,0.7,0.2,1-0.3c2.7-4.7,5.4-9.4,8.1-14.1c1.5-2.6,3.7-3.2,6.3-1.7C368,37.9,373.3,41,378.6,44.1z M359.4,70.5
			c4.4,2.5,8.8,5.1,13.1,7.6c1.6,0.9,1.6,0.9,2.6-0.7c0.4-0.6,0.2-0.8-0.3-1.2c-9.3-5.3-18.5-10.6-27.7-16c-0.8-0.4-1-0.3-1.4,0.4
			c-0.5,1.1-1.2,1.2-2.3,0.6c-0.9-0.5-1.8-1-2.6-1.5c-0.5-0.3-0.7-0.2-0.9,0.3c-1.1,1.9-2.2,3.8-3.2,5.6c-2.7,4.7-5.4,9.4-8.2,14.1
			c-0.4,0.6-0.3,0.9,0.3,1.2c0.9,0.5,1.8,1,2.6,1.5c0.9,0.5,1,1.2,0.5,2.1c-0.1,0.2-0.2,0.4-0.3,0.6c-0.3,0.3-0.1,0.5,0.2,0.7
			c2.1,1.2,4.1,2.4,6.2,3.6c0.4,0.2,0.5,0.1,0.7-0.2c0.5-0.9,1-1.8,1.6-2.7c0.7-1.1,1.3-1.3,2.4-0.6c4.3,2.5,8.6,4.9,12.8,7.4
			c1.4,0.8,2.8,1.6,4.3,2.5c0.9,0.5,1,1.2,0.6,2.1c-0.3,0.5-0.6,1.1-0.9,1.6c-1,1.8-1,1.8,0.7,2.8c0.5,0.3,0.7,0.2,0.9-0.3
			c1.1-1.9,2.2-3.8,3.3-5.7c0.4-0.6,0.3-0.8-0.3-1.2c-9-5.2-18-10.4-27-15.6c-1.6-0.9-1.6-0.9-0.7-2.6c0.3-0.6,0.6-0.7,1.2-0.3
			c9,5.2,18,10.4,27,15.6C366,93,366,93,367,91.4c0.4-0.6,0.3-0.8-0.3-1.2c-9-5.2-18-10.4-27-15.6c-1.6-0.9-1.6-0.9-0.7-2.6
			c0.3-0.6,0.6-0.7,1.2-0.3c9,5.2,18,10.4,27,15.6c1.6,0.9,1.6,0.9,2.6-0.7c0.4-0.6,0.3-0.8-0.3-1.2c-9-5.2-18-10.4-27-15.6
			c-1.6-0.9-1.6-0.9-0.7-2.6c0.3-0.6,0.6-0.6,1.2-0.3c9,5.2,18,10.4,27,15.6c1.6,0.9,1.6,0.9,2.6-0.7c0.4-0.6,0.3-0.8-0.3-1.2
			c-9-5.2-18-10.3-26.9-15.5c-1.7-1-1.7-1-0.7-2.7c0.3-0.6,0.5-0.6,1.1-0.3C350.1,65.1,354.7,67.8,359.4,70.5z M374.6,51.1
			c-5.7-3.3-11.3-6.6-17-9.8c-0.3-0.2-0.6-0.5-0.9,0.1c-1.1,2-2.3,4.1-3.5,6.1c-0.2,0.4-0.2,0.6,0.2,0.8c1,0.5,1.9,1.1,2.9,1.6
			c0.9,0.5,1.1,1.2,0.6,2.1c-0.5,1-1.1,1.9-1.7,2.9c-0.2,0.4-0.2,0.5,0.2,0.8c8.3,4.8,16.6,9.6,24.9,14.4c0.4,0.2,0.6,0.2,0.8-0.2
			c0.5-1,1.1-1.9,1.6-2.9c0.5-0.9,1.2-1.1,2.1-0.6c0.9,0.5,1.9,1,2.8,1.6c0.4,0.3,0.6,0.2,0.9-0.2c1.1-1.9,2.2-3.9,3.3-5.8
			c0.3-0.6,0.3-0.8-0.3-1.1C385.9,57.6,380.2,54.4,374.6,51.1z M370.4,90.8c-2.4,4.1-4.7,8.2-7.1,12.3c-0.3,0.5-0.3,0.7,0.3,1
			c2.5,1.4,4.9,2.8,7.4,4.3c2.2,1.3,4.6,0.7,5.8-1.5c3.6-6.1,7.1-12.3,10.7-18.5c1.3-2.2,0.6-4.5-1.6-5.8c-2.5-1.4-4.9-2.8-7.4-4.3
			c-0.5-0.3-0.7-0.2-1,0.3C375.1,82.7,372.8,86.8,370.4,90.8z M342.8,104.6c3.5,2,7,4.1,10.6,6.1c1.9,1.1,1.9,1.1,2.9-0.8
			c0.3-0.5,0.1-0.6-0.3-0.8c-0.9-0.5-1.7-1-2.6-1.5c-1.2-0.7-1.4-1.3-0.7-2.5c1.4-2.4,2.7-4.8,4.2-7.2c0.3-0.5,0.3-0.7-0.2-1
			c-4.7-2.7-9.4-5.4-14-8.1c-0.6-0.3-0.8-0.2-1.1,0.3c-1.4,2.4-2.7,4.8-4.1,7.2c-0.6,1.1-1.3,1.3-2.4,0.7c-0.5-0.3-1.1-0.6-1.6-0.9
			c-1.6-0.9-1.6-0.9-2.5,0.6c-0.4,0.6-0.4,0.9,0.3,1.3C335.1,100.2,339,102.4,342.8,104.6z M375.8,48.7c3.5,2,7,4.1,10.6,6.1
			c2.2,1.3,4.4,2.5,6.6,3.8c0.2,0.1,0.3,0.4,0.6,0.1c1.1-1,0.9-2.3-0.3-3.1c-10.7-6.2-21.4-12.3-32-18.5c-1.2-0.7-1.8-0.5-2.5,0.7
			c-0.4,0.6-0.3,0.8,0.3,1.2C364.7,42.2,370.2,45.5,375.8,48.7z M329.3,67.1c-2.2,3.8-4.3,7.5-6.5,11.3c-0.9,1.6-0.9,1.6,0.7,2.6
			c0.6,0.4,0.8,0.3,1.2-0.3c4.5-7.8,9-15.6,13.5-23.4c1-1.7,1-1.7-0.7-2.7c-0.5-0.3-0.8-0.3-1.1,0.3C334,59,331.7,63.1,329.3,67.1z
			 M327,65.8c1.7-3,3.4-6,5.2-8.9c0.9-1.6,0.9-1.6-0.7-2.6c-0.6-0.4-0.8-0.3-1.2,0.3c-3.6,6.2-7.2,12.5-10.8,18.7
			c-1,1.7-1,1.7,0.7,2.7c0.5,0.3,0.8,0.3,1.1-0.3C323.1,72.4,325.1,69.1,327,65.8z M319.4,61.4c-0.4-0.2-0.8-0.5-1.2-0.7
			c-1.8-1-1.8-1-2.8,0.8c-0.2,0.4-0.2,0.6,0.2,0.8c1.2,0.6,2.4,1.3,3.5,2c1.9,1.1,1.9,1.1,2.9-0.8c0.2-0.4,0.2-0.5-0.2-0.7
			C321,62.4,320.2,61.9,319.4,61.4z M363,66.2c0.2-1,0.7-1.7,1.3-2.3c-1.7-1-3.3-1.9-5-2.9c-0.2,0.9-0.7,1.6-1.3,2.3
			C359.6,64.3,361.2,65.2,363,66.2z M342.8,54.6c-0.1,0.2-0.2,0.3-0.3,0.5c-1.1,1.9-1.1,1.9,0.8,2.9c0,0,0.1,0,0.1,0
			c0.3,0.2,0.4,0.1,0.6-0.2c0.7-1.3,1.5-2.6,2.3-4c0.2-0.3,0.1-0.4-0.2-0.6c-1.9-1.3-1.9-1.3-3,0.6C343,54.2,342.9,54.4,342.8,54.6z
			 M327.6,86.4c0.1-0.2,0.2-0.3,0.3-0.5c1-1.8,1-1.8-0.8-2.8c-0.5-0.3-0.7-0.1-0.9,0.3c-0.4,0.8-0.9,1.6-1.3,2.3
			c-1,1.8-1,1.8,0.8,2.8c0.4,0.2,0.6,0.3,0.8-0.2C326.8,87.6,327.2,87,327.6,86.4z M351.2,59.5c0.2-0.5,0.3-0.9,0.5-1.2
			c0.2-0.4,0.5-0.7,0.8-1.1c-0.6-0.4-1.2-0.7-1.8-1.1c-1.9-1.1-1.9-1.1-2.9,0.9c-0.2,0.4-0.1,0.5,0.2,0.7
			C349,58.2,350,58.8,351.2,59.5z M369.7,70.1c0.6,0.4,1.2,0.7,1.8,1.1c1.9,1.1,1.9,1.1,2.9-0.9c0,0,0-0.1,0-0.1
			c0.2-0.2,0.2-0.4-0.1-0.5c-1.1-0.6-2.2-1.3-3.4-1.9c-0.2,0.5-0.3,0.9-0.5,1.2C370.3,69.4,370,69.7,369.7,70.1z M352.8,51
			c-1.2-0.7-1.2-0.7-1.9,0.5c-0.7,1.1-0.7,1.1,0.5,1.8c1.2,0.7,1.2,0.7,1.9-0.5C353.9,51.7,353.9,51.7,352.8,51z M385.6,70
			c-1.2-0.7-1.2-0.7-1.9,0.5c-0.7,1.1-0.7,1.1,0.5,1.8c1.2,0.7,1.2,0.7,1.9-0.5C386.8,70.6,386.8,70.6,385.6,70z M356.4,60.9
			c0.4-0.6,0.2-1.5-0.4-1.8c-0.6-0.4-1.5-0.2-1.9,0.4c-0.4,0.6-0.2,1.5,0.5,1.9C355.2,61.8,356,61.6,356.4,60.9z M367.7,65.9
			c-0.6-0.4-1.5-0.2-1.9,0.4c-0.4,0.6-0.2,1.5,0.5,1.9c0.6,0.4,1.5,0.1,1.8-0.5C368.5,67.1,368.3,66.2,367.7,65.9z"/>
		<path class="st0" d="M334.9,84.4c-0.2-0.1-0.3-0.2-0.5-0.3c-1.8-1-1.8-1-0.8-2.8c0.3-0.5,0.5-0.6,0.9-0.3c1.2,0.7,2.4,1.4,3.6,2.1
			c0.4,0.2,0.5,0.4,0.2,0.8c-1,1.8-1,1.9-2.8,0.8C335.3,84.7,335.1,84.6,334.9,84.4z"/>
		<path class="st0" d="M359.5,50.2c1.1-1.9,3.6-2.6,5.6-1.5c1.9,1.1,2.6,3.6,1.4,5.5c-1.1,1.9-3.6,2.6-5.6,1.5
			C359,54.6,358.3,52.1,359.5,50.2z M364.1,52.9c0.4-0.6,0.2-1.5-0.5-1.8c-0.6-0.4-1.5-0.2-1.9,0.4c-0.4,0.6-0.2,1.5,0.5,1.9
			C362.9,53.7,363.8,53.5,364.1,52.9z"/>
		<path class="st0" d="M370.3,61.1c-1.9-1.1-2.6-3.7-1.4-5.6c1.1-1.9,3.6-2.5,5.5-1.4c1.9,1.1,2.6,3.6,1.5,5.5
			C374.8,61.6,372.3,62.3,370.3,61.1z M373.5,58.3c0.4-0.6,0.2-1.5-0.5-1.8c-0.6-0.4-1.5-0.2-1.9,0.4c-0.4,0.6-0.2,1.5,0.5,1.9
			C372.3,59.2,373.2,59,373.5,58.3z"/>
		<path class="st0" d="M379.1,97.5c-0.6,1.1-1.3,2.2-1.9,3.3c-0.6,1-1.2,1.1-2.2,0.6c-1.4-0.8-2.9-1.7-4.3-2.5
			c-0.9-0.5-1.1-1.2-0.6-2.1c1.3-2.2,2.6-4.4,3.8-6.7c0.5-0.9,1.2-1.1,2.1-0.6c1.5,0.8,2.9,1.7,4.4,2.5c0.9,0.5,1,1.2,0.5,2.1
			C380.4,95.2,379.8,96.3,379.1,97.5z M376.7,96.1c0.1-0.2,0.2-0.4,0.3-0.6c1.1-1.9,1.1-1.9-0.8-2.9c0,0-0.1,0-0.1,0
			c-0.3-0.2-0.5-0.1-0.6,0.2c-0.5,0.8-1,1.7-1.4,2.5c-1.1,1.9-1.1,1.9,0.8,2.9c0,0,0.1,0,0.1,0c0.3,0.2,0.5,0.1,0.6-0.2
			C376,97.4,376.4,96.8,376.7,96.1z"/>
		<path class="st0" d="M376.8,85.2c0.4-0.6,1.2-0.9,1.8-0.5c0.7,0.4,0.9,1.2,0.5,1.9c-0.4,0.6-1.2,0.8-1.8,0.5
			C376.7,86.7,376.4,85.8,376.8,85.2z"/>
	</g>
</g>
</svg>
